<svg xmlns="http://www.w3.org/2000/svg" xmlns:xlink="http://www.w3.org/1999/xlink" width="500" zoomAndPan="magnify" viewBox="0 0 375 374.999991" height="500" preserveAspectRatio="xMidYMid meet" version="1.2"><defs><clipPath id="e6b67d51af"><path d="M 112 132 L 209.699219 132 L 209.699219 273 L 112 273 Z M 112 132 "/></clipPath><clipPath id="8c28bb96bd"><path d="M 52.199219 101.675781 L 150 101.675781 L 150 243 L 52.199219 243 Z M 52.199219 101.675781 "/></clipPath></defs><g id="4eac55949a"><g clip-rule="nonzero" clip-path="url(#e6b67d51af)"><path style=" stroke:none;fill-rule:nonzero;fill:#403542;fill-opacity:1;" d="M 209.617188 272.433594 C 205.085938 265.21875 200.554688 258 196.015625 250.78125 L 189.207031 239.980469 L 182.371094 229.175781 L 168.679688 207.582031 L 155.835938 187.355469 L 172.375 163.074219 L 176.726562 156.6875 C 178.183594 154.5625 179.628906 152.433594 181.097656 150.3125 L 189.894531 137.605469 L 193.449219 132.464844 L 146.542969 132.152344 L 145.554688 133.917969 C 144.109375 136.503906 142.695312 139.109375 141.269531 141.707031 L 140.203125 143.660156 L 139.152344 145.621094 L 137.035156 149.53125 L 132.855469 157.378906 L 130.722656 161.425781 C 129.914062 160.191406 129.097656 158.960938 128.285156 157.730469 L 125.792969 154 L 123.273438 150.28125 L 120.753906 146.574219 L 118.203125 142.878906 C 116.492188 140.417969 114.753906 137.976562 112.996094 135.546875 C 112.941406 135.460938 112.871094 135.40625 112.773438 135.378906 C 112.675781 135.355469 112.582031 135.367188 112.496094 135.417969 C 112.410156 135.46875 112.351562 135.542969 112.328125 135.640625 C 112.300781 135.738281 112.3125 135.832031 112.363281 135.917969 C 113.644531 138.625 114.957031 141.316406 116.304688 143.992188 L 118.324219 148.003906 L 120.371094 152 L 122.433594 155.984375 L 124.511719 159.960938 C 125.914062 162.601562 127.3125 165.246094 128.730469 167.875 L 130.78125 171.671875 L 133.222656 167.84375 C 134.8125 165.34375 136.367188 162.828125 137.941406 160.316406 L 142.621094 152.757812 L 144.941406 148.964844 L 146.101562 147.078125 L 147.25 145.1875 C 148.410156 143.265625 149.574219 141.34375 150.726562 139.417969 C 151.648438 139.417969 179.691406 139.3125 180.804688 139.289062 L 175.984375 146.941406 C 174.617188 149.125 173.222656 151.285156 171.839844 153.460938 L 167.675781 159.972656 L 151.011719 186.003906 L 150.140625 187.355469 L 151.011719 188.617188 L 165.460938 209.707031 L 179.941406 230.777344 L 187.183594 241.308594 L 194.449219 251.828125 C 199.289062 258.851562 204.144531 265.855469 209.019531 272.84375 C 209.074219 272.925781 209.148438 272.976562 209.246094 272.996094 C 209.34375 273.011719 209.429688 272.996094 209.511719 272.941406 C 209.59375 272.886719 209.644531 272.8125 209.664062 272.714844 C 209.6875 272.621094 209.667969 272.53125 209.617188 272.449219 Z M 209.617188 272.433594 "/></g><g clip-rule="nonzero" clip-path="url(#8c28bb96bd)"><path style=" stroke:none;fill-rule:nonzero;fill:#403542;fill-opacity:1;" d="M 145.628906 230.632812 L 143.609375 226.617188 L 141.566406 222.621094 L 139.5 218.636719 L 137.421875 214.664062 C 136.019531 212.019531 134.625 209.375 133.203125 206.746094 L 131.152344 202.945312 L 128.710938 206.777344 C 127.121094 209.277344 125.566406 211.796875 123.992188 214.308594 L 119.308594 221.863281 L 116.992188 225.65625 L 115.832031 227.546875 L 114.683594 229.433594 C 113.523438 231.359375 112.371094 233.28125 111.222656 235.207031 C 110.300781 235.207031 82.257812 235.316406 81.140625 235.335938 L 85.949219 227.683594 C 87.320312 225.503906 88.714844 223.335938 90.097656 221.164062 L 94.261719 214.652344 L 110.925781 188.621094 L 111.792969 187.265625 L 110.925781 186.007812 L 96.476562 164.957031 L 81.996094 143.933594 L 74.753906 133.421875 L 67.480469 122.929688 C 62.648438 115.925781 57.792969 108.9375 52.914062 101.960938 C 52.859375 101.882812 52.789062 101.832031 52.695312 101.8125 C 52.601562 101.792969 52.511719 101.808594 52.429688 101.859375 C 52.347656 101.914062 52.296875 101.988281 52.273438 102.085938 C 52.25 102.179688 52.265625 102.269531 52.316406 102.355469 C 56.851562 109.5625 61.382812 116.765625 65.917969 123.964844 L 72.726562 134.757812 L 79.5625 145.539062 L 93.25 167.089844 L 106.097656 187.269531 L 89.570312 211.554688 L 85.214844 217.9375 C 83.757812 220.058594 82.316406 222.195312 80.847656 224.3125 L 72.050781 237.023438 L 68.496094 242.160156 L 115.402344 242.472656 L 116.394531 240.691406 C 117.839844 238.105469 119.253906 235.5 120.679688 232.902344 L 121.746094 230.953125 L 122.804688 228.996094 L 124.917969 225.085938 L 129.078125 217.25 L 131.210938 213.203125 L 133.648438 216.894531 L 136.140625 220.625 L 138.660156 224.34375 L 141.179688 228.054688 L 143.734375 231.746094 C 145.441406 234.207031 147.175781 236.648438 148.9375 239.074219 C 148.996094 239.148438 149.066406 239.195312 149.15625 239.214844 C 149.246094 239.230469 149.332031 239.21875 149.410156 239.167969 C 149.492188 239.121094 149.542969 239.054688 149.570312 238.96875 C 149.597656 238.878906 149.59375 238.792969 149.554688 238.710938 C 148.285156 236.007812 146.976562 233.316406 145.628906 230.632812 Z M 145.628906 230.632812 "/></g><g style="fill:#403542;fill-opacity:1;"><g transform="translate(199.453189, 190.261248)"><path style="stroke:none" d="M 12 0.3125 C 9.945312 0.3125 8.140625 -0.125 6.578125 -1 C 5.015625 -1.875 3.804688 -3.117188 2.953125 -4.734375 C 2.109375 -6.347656 1.6875 -8.207031 1.6875 -10.3125 L 1.6875 -17.6875 C 1.6875 -19.789062 2.117188 -21.648438 2.984375 -23.265625 C 3.847656 -24.878906 5.070312 -26.125 6.65625 -27 C 8.25 -27.875 10.082031 -28.3125 12.15625 -28.3125 L 16.40625 -28.3125 C 18.40625 -28.3125 20.160156 -27.882812 21.671875 -27.03125 C 23.191406 -26.1875 24.375 -24.992188 25.21875 -23.453125 C 26.0625 -21.921875 26.484375 -20.144531 26.484375 -18.125 L 21.046875 -18.125 C 21.046875 -19.71875 20.617188 -21 19.765625 -21.96875 C 18.910156 -22.945312 17.789062 -23.4375 16.40625 -23.4375 L 12.15625 -23.4375 C 10.664062 -23.4375 9.46875 -22.882812 8.5625 -21.78125 C 7.65625 -20.675781 7.203125 -19.226562 7.203125 -17.4375 L 7.203125 -10.5625 C 7.203125 -8.769531 7.640625 -7.320312 8.515625 -6.21875 C 9.398438 -5.113281 10.5625 -4.5625 12 -4.5625 L 16.3125 -4.5625 C 17.726562 -4.5625 18.882812 -5.109375 19.78125 -6.203125 C 20.675781 -7.296875 21.125 -8.734375 21.125 -10.515625 L 26.5625 -10.515625 C 26.5625 -8.359375 26.132812 -6.457031 25.28125 -4.8125 C 24.425781 -3.175781 23.222656 -1.910156 21.671875 -1.015625 C 20.128906 -0.128906 18.34375 0.3125 16.3125 0.3125 Z M 12 0.3125 "/></g></g><g style="fill:#403542;fill-opacity:1;"><g transform="translate(226.97046, 190.261248)"><path style="stroke:none" d="M 12.359375 0.3125 C 10.253906 0.3125 8.394531 -0.128906 6.78125 -1.015625 C 5.164062 -1.910156 3.910156 -3.164062 3.015625 -4.78125 C 2.128906 -6.394531 1.6875 -8.269531 1.6875 -10.40625 L 1.6875 -17.59375 C 1.6875 -19.726562 2.128906 -21.601562 3.015625 -23.21875 C 3.910156 -24.832031 5.164062 -26.082031 6.78125 -26.96875 C 8.394531 -27.863281 10.253906 -28.3125 12.359375 -28.3125 L 16.59375 -28.3125 C 18.707031 -28.3125 20.566406 -27.863281 22.171875 -26.96875 C 23.785156 -26.082031 25.039062 -24.832031 25.9375 -23.21875 C 26.832031 -21.601562 27.28125 -19.726562 27.28125 -17.59375 L 27.28125 -10.40625 C 27.28125 -8.269531 26.832031 -6.394531 25.9375 -4.78125 C 25.039062 -3.164062 23.785156 -1.910156 22.171875 -1.015625 C 20.566406 -0.128906 18.707031 0.3125 16.59375 0.3125 Z M 16.59375 -4.5625 C 18.144531 -4.5625 19.394531 -5.117188 20.34375 -6.234375 C 21.289062 -7.359375 21.765625 -8.828125 21.765625 -10.640625 L 21.765625 -17.359375 C 21.765625 -19.171875 21.289062 -20.632812 20.34375 -21.75 C 19.394531 -22.875 18.144531 -23.4375 16.59375 -23.4375 L 12.359375 -23.4375 C 10.816406 -23.4375 9.570312 -22.875 8.625 -21.75 C 7.675781 -20.632812 7.203125 -19.171875 7.203125 -17.359375 L 7.203125 -10.640625 C 7.203125 -8.828125 7.675781 -7.359375 8.625 -6.234375 C 9.570312 -5.117188 10.816406 -4.5625 12.359375 -4.5625 Z M 16.59375 -4.5625 "/></g></g><g style="fill:#403542;fill-opacity:1;"><g transform="translate(255.927581, 190.261248)"><path style="stroke:none" d="M 6.359375 0 C 5.210938 0 4.28125 -0.34375 3.5625 -1.03125 C 2.84375 -1.726562 2.484375 -2.640625 2.484375 -3.765625 L 2.484375 -28 L 15.84375 -28 C 17.976562 -28 19.847656 -27.597656 21.453125 -26.796875 C 23.066406 -25.992188 24.320312 -24.859375 25.21875 -23.390625 C 26.113281 -21.929688 26.5625 -20.238281 26.5625 -18.3125 L 26.5625 -10.484375 C 26.5625 -7.035156 25.664062 -4.425781 23.875 -2.65625 C 22.09375 -0.882812 19.46875 0 16 0 Z M 15.84375 -4.875 C 17.550781 -4.875 18.84375 -5.367188 19.71875 -6.359375 C 20.601562 -7.347656 21.046875 -8.800781 21.046875 -10.71875 L 21.046875 -18.078125 C 21.046875 -19.597656 20.550781 -20.816406 19.5625 -21.734375 C 18.570312 -22.660156 17.28125 -23.125 15.6875 -23.125 L 8 -23.125 L 8 -4.875 Z M 15.84375 -4.875 "/></g></g><g style="fill:#403542;fill-opacity:1;"><g transform="translate(284.004789, 190.261248)"><path style="stroke:none" d="M 6.359375 0 C 5.210938 0 4.28125 -0.34375 3.5625 -1.03125 C 2.84375 -1.726562 2.484375 -2.640625 2.484375 -3.765625 L 2.484375 -28 L 23.84375 -28 L 23.84375 -23.203125 L 8 -23.203125 L 8 -16.71875 L 22.640625 -16.71875 L 22.640625 -11.921875 L 8 -11.921875 L 8 -4.796875 L 23.84375 -4.796875 L 23.84375 0 Z M 6.359375 0 "/></g></g><g style="fill:#403542;fill-opacity:1;"><g transform="translate(201.339792, 217.53876)"><path style="stroke:none" d="M 7.21875 0 C 6.925781 0 6.679688 -0.0820312 6.484375 -0.25 C 6.296875 -0.414062 6.132812 -0.6875 6 -1.0625 L 0.5 -16.09375 L 2.25 -16.09375 L 7.265625 -2.046875 L 7.296875 -2.046875 L 12.328125 -16.09375 L 14.078125 -16.09375 L 8.09375 0 Z M 7.21875 0 "/></g></g><g style="fill:#403542;fill-opacity:1;"><g transform="translate(220.861957, 217.53876)"><path style="stroke:none" d="M 10.96875 -4.46875 L 3.90625 -4.46875 L 2.25 0 L 0.5 0 L 6.6875 -16.09375 L 7.46875 -16.09375 C 7.976562 -16.09375 8.347656 -15.789062 8.578125 -15.1875 L 12.125 -5.890625 L 12.140625 -5.890625 L 12.140625 -5.84375 L 14.375 0 L 12.625 0 Z M 4.4375 -5.890625 L 10.4375 -5.890625 L 7.453125 -13.890625 L 7.421875 -13.890625 Z M 4.4375 -5.890625 "/></g></g><g style="fill:#403542;fill-opacity:1;"><g transform="translate(240.683032, 217.53876)"><path style="stroke:none" d="M 1.84375 -16.09375 L 3.453125 -16.09375 L 12.375 -2.6875 L 12.375 -16.09375 L 14.03125 -16.09375 L 14.03125 0 L 12.421875 0 L 3.5 -13.3125 L 3.5 0 L 1.84375 0 Z M 1.84375 -16.09375 "/></g></g><g style="fill:#403542;fill-opacity:1;"><g transform="translate(261.492773, 217.53876)"><path style="stroke:none" d=""/></g></g><g style="fill:#403542;fill-opacity:1;"><g transform="translate(272.415837, 217.53876)"><path style="stroke:none" d="M 7.21875 0 C 6.925781 0 6.679688 -0.0820312 6.484375 -0.25 C 6.296875 -0.414062 6.132812 -0.6875 6 -1.0625 L 0.5 -16.09375 L 2.25 -16.09375 L 7.265625 -2.046875 L 7.296875 -2.046875 L 12.328125 -16.09375 L 14.078125 -16.09375 L 8.09375 0 Z M 7.21875 0 "/></g></g><g style="fill:#403542;fill-opacity:1;"><g transform="translate(291.938003, 217.53876)"><path style="stroke:none" d="M 6.71875 0.1875 C 5.738281 0.1875 4.867188 -0.03125 4.109375 -0.46875 C 3.359375 -0.90625 2.773438 -1.523438 2.359375 -2.328125 C 1.953125 -3.140625 1.75 -4.066406 1.75 -5.109375 L 1.75 -16.09375 L 3.453125 -16.09375 L 3.453125 -5.0625 C 3.453125 -3.9375 3.75 -3.03125 4.34375 -2.34375 C 4.945312 -1.664062 5.738281 -1.328125 6.71875 -1.328125 L 9.203125 -1.328125 C 10.179688 -1.328125 10.96875 -1.664062 11.5625 -2.34375 C 12.164062 -3.03125 12.46875 -3.9375 12.46875 -5.0625 L 12.46875 -16.09375 L 14.171875 -16.09375 L 14.171875 -5.109375 C 14.171875 -4.066406 13.960938 -3.140625 13.546875 -2.328125 C 13.128906 -1.523438 12.546875 -0.90625 11.796875 -0.46875 C 11.046875 -0.03125 10.179688 0.1875 9.203125 0.1875 Z M 6.71875 0.1875 "/></g></g></g></svg>